<?xml version="1.0" encoding="UTF-8" standalone="no"?>
<!DOCTYPE svg PUBLIC "-//W3C//DTD SVG 1.1//EN" "http://www.w3.org/Graphics/SVG/1.1/DTD/svg11.dtd">
<svg width="100%" height="100%" viewBox="0 0 800 400" version="1.1" xmlns="http://www.w3.org/2000/svg" xmlns:xlink="http://www.w3.org/1999/xlink" xml:space="preserve" xmlns:serif="http://www.serif.com/" style="fill-rule:evenodd;clip-rule:evenodd;stroke-linejoin:round;stroke-miterlimit:2;">
    <g transform="matrix(21.8117,0,0,21.8117,-4071.03,-3807.68)">
        <g transform="matrix(12,0,0,12,192.714,187.912)">
            <path d="M0.068,-0.718L0.068,-0L0.554,-0L0.554,-0.112L0.194,-0.112L0.194,-0.314L0.497,-0.314L0.497,-0.426L0.194,-0.426L0.194,-0.606L0.554,-0.606L0.554,-0.718L0.068,-0.718Z" style="fill:white;fill-rule:nonzero;"/>
        </g>
        <g transform="matrix(12,0,0,12,199.722,187.912)">
            <rect x="0.063" y="-0.718" width="0.12" height="0.718" style="fill:white;fill-rule:nonzero;"/>
        </g>
        <g transform="matrix(12,0,0,12,202.674,187.912)">
            <path d="M0.285,0.011C0.39,0.011 0.473,-0.044 0.51,-0.136L0.407,-0.175C0.391,-0.121 0.344,-0.091 0.285,-0.091C0.208,-0.091 0.154,-0.146 0.145,-0.236L0.513,-0.236L0.513,-0.276C0.513,-0.42 0.432,-0.535 0.28,-0.535C0.134,-0.535 0.03,-0.416 0.03,-0.262C0.03,-0.1 0.135,0.011 0.285,0.011ZM0.279,-0.434C0.355,-0.434 0.391,-0.384 0.392,-0.326L0.151,-0.326C0.169,-0.397 0.217,-0.434 0.279,-0.434Z" style="fill:white;fill-rule:nonzero;"/>
        </g>
        <g transform="matrix(12,0,0,12,209.274,187.912)">
            <path d="M0.202,0.009C0.27,0.009 0.325,-0.013 0.358,-0.05C0.376,-0.007 0.422,0.01 0.509,-0L0.509,-0.093C0.476,-0.089 0.463,-0.098 0.463,-0.128L0.463,-0.354C0.463,-0.475 0.387,-0.535 0.261,-0.535C0.145,-0.535 0.068,-0.467 0.042,-0.38L0.155,-0.354C0.169,-0.405 0.199,-0.431 0.256,-0.431C0.32,-0.431 0.346,-0.4 0.346,-0.35L0.346,-0.341L0.201,-0.311C0.1,-0.29 0.025,-0.246 0.025,-0.146C0.025,-0.052 0.102,0.009 0.202,0.009ZM0.346,-0.185C0.346,-0.121 0.284,-0.087 0.22,-0.087C0.174,-0.087 0.144,-0.11 0.144,-0.151C0.144,-0.198 0.182,-0.214 0.233,-0.225L0.346,-0.249L0.346,-0.185Z" style="fill:white;fill-rule:nonzero;"/>
        </g>
    </g>
</svg>
